<svg width="30" height="30" viewBox="0 0 30 30" fill="none" xmlns="http://www.w3.org/2000/svg">
<path d="M15 30C14.5729 30 14.1611 29.8261 13.8403 29.5102C12.6283 28.319 11.4599 27.1997 10.429 26.2123L10.4237 26.2072C7.40135 23.3122 4.79141 20.8121 2.97546 18.3493C0.945511 15.5961 0 12.9856 0 10.1339C0 7.36314 0.845261 4.80697 2.37991 2.93589C3.93288 1.04269 6.06377 0 8.38074 0C10.1125 0 11.6984 0.615374 13.0943 1.82889C13.7988 2.44143 14.4374 3.1911 15 4.06553C15.5628 3.1911 16.2012 2.44143 16.9059 1.82889C18.3018 0.615374 19.8878 0 21.6195 0C23.9362 0 26.0674 1.04269 27.6203 2.93589C29.155 4.80697 30 7.36314 30 10.1339C30 12.9856 29.0547 15.5961 27.0248 18.3491C25.2088 20.8121 22.5991 23.3119 19.5772 26.2067C18.5445 27.1956 17.3742 28.3167 16.1595 29.5107C15.8389 29.8261 15.4269 30 15 30ZM8.38074 1.97527C6.56044 1.97527 4.88823 2.79182 3.67172 4.27469C2.43713 5.77994 1.75713 7.86068 1.75713 10.1339C1.75713 12.5323 2.5502 14.6774 4.32838 17.089C6.04706 19.42 8.60344 21.8687 11.5633 24.704L11.5688 24.7091C12.6036 25.7004 13.7766 26.8241 14.9975 28.024C16.2257 26.8218 17.4005 25.6962 18.4373 24.7035C21.397 21.8682 23.9532 19.42 25.6718 17.089C27.4498 14.6774 28.2429 12.5323 28.2429 10.1339C28.2429 7.86068 27.5629 5.77994 26.3283 4.27469C25.112 2.79182 23.4396 1.97527 21.6195 1.97527C20.286 1.97527 19.0617 2.45172 17.9807 3.39125C17.0174 4.2289 16.3463 5.28779 15.9528 6.02871C15.7505 6.40972 15.3944 6.63714 15 6.63714C14.6056 6.63714 14.2495 6.40972 14.0472 6.02871C13.6539 5.28779 12.9829 4.2289 12.0193 3.39125C10.9383 2.45172 9.71397 1.97527 8.38074 1.97527Z" fill="white"/>
</svg>
