<svg width="27" height="40" viewBox="0 0 27 40" fill="none" xmlns="http://www.w3.org/2000/svg">
<mask id="path-1-inside-1" fill="white">
<path d="M13.3333 0C5.98113 0 0 5.84865 0 13.037V26.0937C0 33.2819 5.98113 39.13 13.3333 39.13C20.6855 39.13 26.6666 33.2821 26.6666 26.0937V13.037C26.6666 5.84865 20.6853 0 13.3333 0ZM25.1852 26.0937C25.1852 32.483 19.8684 37.6807 13.3333 37.6807C6.79823 37.6807 1.48146 32.483 1.48146 26.0937V13.037C1.48146 6.64775 6.79823 1.44924 13.3333 1.44924C19.8684 1.44924 25.1852 6.64756 25.1852 13.037V26.0937Z"/>
</mask>
<path d="M13.3333 0C5.98113 0 0 5.84865 0 13.037V26.0937C0 33.2819 5.98113 39.13 13.3333 39.13C20.6855 39.13 26.6666 33.2821 26.6666 26.0937V13.037C26.6666 5.84865 20.6853 0 13.3333 0ZM25.1852 26.0937C25.1852 32.483 19.8684 37.6807 13.3333 37.6807C6.79823 37.6807 1.48146 32.483 1.48146 26.0937V13.037C1.48146 6.64775 6.79823 1.44924 13.3333 1.44924C19.8684 1.44924 25.1852 6.64756 25.1852 13.037V26.0937Z" fill="white"/>
<path d="M13.3333 -5C3.32611 -5 -5 2.98201 -5 13.037H5C5 8.7153 8.63614 5 13.3333 5V-5ZM-5 13.037V26.0937H5V13.037H-5ZM-5 26.0937C-5 36.1489 3.32646 44.13 13.3333 44.13V34.13C8.6358 34.13 5 30.4149 5 26.0937H-5ZM13.3333 44.13C23.3402 44.13 31.6666 36.1491 31.6666 26.0937H21.6666C21.6666 30.4151 18.0309 34.13 13.3333 34.13V44.13ZM31.6666 26.0937V13.037H21.6666V26.0937H31.6666ZM31.6666 13.037C31.6666 2.98198 23.3403 -5 13.3333 -5V5C18.0303 5 21.6666 8.71533 21.6666 13.037H31.6666ZM20.1852 26.0937C20.1852 29.6156 17.2142 32.6807 13.3333 32.6807V42.6807C22.5226 42.6807 30.1852 35.3504 30.1852 26.0937H20.1852ZM13.3333 32.6807C9.45245 32.6807 6.48146 29.6156 6.48146 26.0937H-3.51854C-3.51854 35.3504 4.14401 42.6807 13.3333 42.6807V32.6807ZM6.48146 26.0937V13.037H-3.51854V26.0937H6.48146ZM6.48146 13.037C6.48146 9.51472 9.4529 6.44924 13.3333 6.44924V-3.55076C4.14355 -3.55076 -3.51854 3.78077 -3.51854 13.037H6.48146ZM13.3333 6.44924C17.2138 6.44924 20.1852 9.51461 20.1852 13.037H30.1852C30.1852 3.78052 22.523 -3.55076 13.3333 -3.55076V6.44924ZM20.1852 13.037V26.0937H30.1852V13.037H20.1852Z" fill="white" mask="url(#path-1-inside-1)"/>
<mask id="path-3-inside-2" fill="white">
<path d="M13.3333 4.34778C12.9242 4.34778 12.5925 4.67191 12.5925 5.07249V11.6345C12.5925 12.0351 12.9242 12.3593 13.3333 12.3593C13.7425 12.3593 14.0742 12.0351 14.0742 11.6345V5.07249C14.074 4.67191 13.7425 4.34778 13.3333 4.34778Z"/>
</mask>
<path d="M13.3333 4.34778C12.9242 4.34778 12.5925 4.67191 12.5925 5.07249V11.6345C12.5925 12.0351 12.9242 12.3593 13.3333 12.3593C13.7425 12.3593 14.0742 12.0351 14.0742 11.6345V5.07249C14.074 4.67191 13.7425 4.34778 13.3333 4.34778Z" fill="white"/>
<path d="M14.0742 5.07249H19.0742L19.0742 5.06999L14.0742 5.07249ZM13.3333 -0.652222C10.2686 -0.652222 7.59253 1.80587 7.59253 5.07249H17.5925C17.5925 7.53795 15.5799 9.34778 13.3333 9.34778V-0.652222ZM7.59253 5.07249V11.6345H17.5925V5.07249H7.59253ZM7.59253 11.6345C7.59253 14.9006 10.268 17.3593 13.3333 17.3593V7.35931C15.5805 7.35931 17.5925 9.16969 17.5925 11.6345H7.59253ZM13.3333 17.3593C16.3987 17.3593 19.0742 14.9006 19.0742 11.6345H9.07416C9.07416 9.16969 11.0862 7.35931 13.3333 7.35931V17.3593ZM19.0742 11.6345V5.07249H9.07416V11.6345H19.0742ZM19.0742 5.06999C19.0725 1.80757 16.4004 -0.652222 13.3333 -0.652222V9.34778C11.0845 9.34778 9.07539 7.53625 9.07416 5.07499L19.0742 5.06999Z" fill="white" mask="url(#path-3-inside-2)"/>
</svg>
